<?xml version="1.0" encoding="UTF-8"?>
<svg id="Capa_1" xmlns="http://www.w3.org/2000/svg" version="1.1" viewBox="0 0 427.4 375.7">
  <!-- Generator: Adobe Illustrator 29.4.0, SVG Export Plug-In . SVG Version: 2.1.0 Build 152)  -->
  <defs>
    <style>
      .st0 {
        fill: #a59064;
      }

      .st1 {
        fill: #ceccd9;
      }

      .st2 {
        fill: #fff;
      }
    </style>
  </defs>
  <g>
    <path class="st1" d="M8.7,375.2v-30.1h9.1c8.3,0,10.8,4.9,10.8,9.1s-2.6,8.9-10.8,8.9h-6.1v12.1h-3ZM18.5,360.4c4.2,0,7.2-2.5,7.2-6.3s-1.9-6.3-7.8-6.3h-6.1v12.5h6.7Z"/>
    <path class="st1" d="M36.7,350.3v-5.1h2.8v5.1h-2.8ZM36.7,375.2v-22.2h2.8v22.2h-2.8Z"/>
    <path class="st1" d="M57.7,358.5c-.2-2.2-1.5-3.5-3.3-3.5s-3.4,1.4-3.4,3.3,1.1,2.8,3.9,3.7c5.4,1.8,6.5,3.9,6.5,7.1s-2.7,6.7-7,6.7-6.8-2.7-6.8-6.9v-.2h2.8c0,3,1.6,4.6,4,4.6s4.1-1.4,4.1-4-1.4-3.3-3.9-4.3c-3.9-1.4-6.4-2.5-6.4-6.3s2.7-6.2,6.3-6.2,6.1,2.5,6.1,6.1h-2.8Z"/>
    <path class="st1" d="M91.3,368.7c-2.3,4.5-5.9,7.1-11.1,7.1s-11.9-4.9-11.9-11.9,5.4-11.5,11.9-11.5,9.2,2.7,11.1,7.3h-3.1c-1.7-3.1-4.6-4.7-7.8-4.7-5.1,0-9.2,4-9.2,9.1s4,9.1,9.2,9.1,6.3-1.5,7.8-4.5h3.1Z"/>
    <path class="st1" d="M100,350.3v-5.1h2.8v5.1h-2.8ZM100,375.2v-22.2h2.8v22.2h-2.8Z"/>
    <path class="st1" d="M129.1,375.2v-12.4c0-5-3-7.8-6.9-7.8s-6.9,3.3-6.9,7.6v12.6h-2.8v-22.2h2.8v2.8h0c1.4-2.2,3.9-3.4,6.8-3.4,6.1,0,9.8,4.2,9.8,10.4v12.4h-2.8Z"/>
    <path class="st1" d="M161.3,375.2v-3.9h0c-1.8,2.8-5,4.4-8.7,4.4-6.7,0-11.9-5-11.9-11.7s5.4-11.6,11.9-11.6,6.9,1.7,8.7,4.5h0v-3.9h2.8v22.2h-2.8ZM161.5,364.1c0-5-3.9-9.1-8.9-9.1s-9.1,3.9-9.1,9.2,3.9,9,9.1,9,8.9-4.1,8.9-9.1Z"/>
    <path class="st1" d="M182.2,358.5c-.2-2.2-1.5-3.5-3.3-3.5s-3.4,1.4-3.4,3.3,1.1,2.8,3.9,3.7c5.4,1.8,6.5,3.9,6.5,7.1s-2.7,6.7-7,6.7-6.8-2.7-6.8-6.9v-.2h2.8c0,3,1.6,4.6,4,4.6s4.1-1.4,4.1-4-1.4-3.3-3.9-4.3c-3.9-1.4-6.4-2.5-6.4-6.3s2.7-6.2,6.3-6.2,6.1,2.5,6.1,6.1h-2.8Z"/>
    <path class="st1" d="M229,375.2v-3.9h0c-2,2.9-5.2,4.4-8.7,4.4-6.7,0-11.9-5-11.9-11.7s5.4-11.6,11.9-11.6,6.7,1.6,8.7,4.4h0v-11.7h2.8v30.1h-2.8ZM229.2,364.1c0-5-3.9-9.1-8.9-9.1s-9.1,3.9-9.1,9.2,3.8,9,9.1,9,8.9-4,8.9-9.1Z"/>
    <path class="st1" d="M243.4,365.1c.2,4.4,4.3,8,8.6,8s6.7-2,8-5.2h3c-1.7,4.8-6.2,7.8-10.9,7.8s-11.6-5.1-11.6-11.6,5.3-11.7,11.5-11.7,11.7,5.7,11.7,11.9,0,.6,0,.9h-20.2ZM260.7,362.6c-.8-4.5-4.3-7.6-8.7-7.6s-7.8,3-8.6,7.6h17.4Z"/>
    <path class="st1" d="M307.7,375.2v-3.9h0c-1.8,2.8-5,4.4-8.7,4.4-6.7,0-11.9-5-11.9-11.7s5.4-11.6,11.9-11.6,6.9,1.7,8.7,4.5h0v-3.9h2.8v22.2h-2.8ZM307.8,364.1c0-5-3.9-9.1-8.9-9.1s-9.1,3.9-9.1,9.2,3.9,9,9.1,9,8.9-4.1,8.9-9.1Z"/>
    <path class="st1" d="M342.1,368.7c-2.3,4.5-5.9,7.1-11.1,7.1s-11.9-4.9-11.9-11.9,5.4-11.5,11.9-11.5,9.2,2.7,11.1,7.3h-3.1c-1.7-3.1-4.6-4.7-7.8-4.7-5.1,0-9.2,4-9.2,9.1s4,9.1,9.2,9.1,6.3-1.5,7.8-4.5h3.1Z"/>
    <path class="st1" d="M352.5,365.1c.2,4.4,4.3,8,8.6,8s6.7-2,8-5.2h3c-1.7,4.8-6.2,7.8-10.9,7.8s-11.6-5.1-11.6-11.6,5.3-11.7,11.5-11.7,11.7,5.7,11.7,11.9,0,.6,0,.9h-20.2ZM369.8,362.6c-.8-4.5-4.3-7.6-8.7-7.6s-7.8,3-8.6,7.6h17.4Z"/>
    <path class="st1" d="M381.4,375.2v-22.2h2.8v3.2h0c1-2.3,2.7-3.6,6.3-3.8v3h0c-4.1.4-6.3,3.1-6.3,6.7v13.1h-2.8Z"/>
    <path class="st1" d="M396.8,364.2c0-6.5,5.3-11.8,11.6-11.8s11.7,5.4,11.7,11.7-5.4,11.7-11.7,11.7-11.6-5.3-11.6-11.5ZM417.2,364c0-4.8-3.9-9-8.8-9s-8.7,4.2-8.7,9.2,3.9,9,8.8,9,8.8-4.1,8.8-9.2Z"/>
  </g>
  <g>
    <path class="st0" d="M199.7.9c7.4-.4,14.9-1.6,22.4-.4,3.9,11.9,9.1,26.8,5.2,39.2-3.5,11-10.3,8-9.4,23.8,1.1,19.1,17,42.3,8.2,61.2-1.5,3.2-4,5.1-5.6,7.7-9.8,16.4,8.7,44.7,8.2,62.4-6.6.3-13.1,1.4-19.8.7-5.3-14.8-12.6-28.3-8-44.6,4.6-16.1,13.9-16.8,8.1-37.1-4.3-14.9-11.1-22.3-9.3-39.5.9-9.1,6.9-13.5,9.7-20.9,7-18.4-9.3-34.5-9.7-52.4Z"/>
    <path class="st0" d="M184,5.1c2.4,19,17.9,44.7,7,62.9-1.4,2.4-4.6,4.8-5.7,6.8-7.9,14,15.2,49.7,8.2,70.3-2.5,7.3-8.6,9.9-9.5,18.7-.8,8.9,2.4,17.6,4.6,26,.2.7.9,2.2,0,2.5-4.3-1.6-19.3-5.8-21.9-8.7-4.5-5.1,7.4-22.5,9.3-28,6.8-19.6-15.7-38.5-8.8-62.7,1.9-6.8,7.1-11.5,9.1-17.4,6.6-19.5-13.6-39.1-10.3-60,.9-5.7,13.2-8.7,18.1-10.4Z"/>
    <path class="st0" d="M241.1,4.3c.8-.7,18.7,6.6,19.9,7.9,4,4.3-8.5,15.5-9.1,19.1-3.5,22,16.8,48.2,8.6,69.1-1.6,4-4.2,5.8-6.1,8.8-10.4,16.9,9.1,45.3,8.1,63.6-.1,2.3-1.9,10.1-3.3,11.6-.6.6-12.9,6.3-13.6,6.2-1.5,0-.3-5.3-.4-7-1.8-19.7-17.4-34.5-10.5-56.1,1.9-5.9,6.7-12,8.7-17.8,7-20.7-17.9-40.2-7.9-65.9,1.8-4.7,5.6-8.1,7.4-12.5,4-9.4,2-18.1-1.8-27.1Z"/>
    <path class="st0" d="M150,24.1c.7,20,18.6,47.6,7.3,66.5-2.7,4.6-6.7,6.1-7.3,12.6-2.2,22.3,21.7,50.7,5.4,72.5-1.3,0-11.5-9.2-12.3-10.8-2.1-4-7.6-20.1-9-25-2.3-8.3-3.4-16.1-.9-24.5,2.6-8.5,9.5-13.1,10.2-22.9,1-14-6.1-22.8-9.5-35.2-.7-2.7-2.4-9.4-2.1-11.9.7-4.6,14.2-17.7,18.2-21.2Z"/>
    <path class="st0" d="M270.1,18.3c1.3-1,17.8,15.3,19.2,17.6,5,8.6,8.5,31.8,5.2,41.2-1.7,4.9-6.3,7.9-8,12.7-5.4,14.9,6.6,35.9,9.1,50.9.7,4.4,1.3,7.4-.6,11.4-3.4,7-10.9,13-16.2,18.6-1.5-2.4.5-5.6.4-7.9-.4-17.2-14.3-32.8-12.3-51.3,1.2-11.1,10.8-20.1,11.5-30.7.9-12-6.3-21.9-9.3-33-2.9-10.6-3.2-19.2,1.1-29.6Z"/>
    <path class="st0" d="M308.1,75.5c1.2-.2,1.2,1.5,1.4,2.3,3.5,14.5,1.8,29.6-.6,44.1-1.9.3-1.3,0-1.8-1.1-2.6-4.7-5.5-17.1-5.6-22.5-.2-8.7,3.3-15.2,6.7-22.8Z"/>
    <path class="st0" d="M118.6,76.3c1.3-1.6,1.4.6,1.7,1.2,7.4,14.4,7.7,31.5-1.3,45.2-2.9-9.5-3.6-20.3-2.9-30.2.1-1.9,2-15.5,2.5-16.2Z"/>
  </g>
  <g>
    <path class="st2" d="M0,272.3v-45.7h18.6v45.5c0,10.3,6.2,17.4,16.3,17.4s16.1-7.1,16.1-17.4v-45.5h18.6v45.7c0,20.7-13.4,34.8-34.7,34.8S0,293,0,272.3Z"/>
    <path class="st2" d="M146.1,306.2l-45-42.9v42.4h-18.1v-79.3h5.8l45,43.2v-43h18.1v79.5h-5.8Z"/>
    <path class="st2" d="M165.8,226.7h18.6v79.1h-18.6v-79.1Z"/>
    <path class="st2" d="M195.6,266.1c0-23.7,17.9-41.2,42-41.2s41.6,17.5,41.6,39.2-3,17.2-9,25.1l-2.7,3.6h-22l5.4-6.3c6.3-7.5,9.2-13.7,9.2-21.1,0-13.9-10.2-23-22.5-23s-23,9.6-23,23.7,6.5,19,24.3,28.5l23.2,12.4v20.3l-28.8-15.8c-21.1-11.6-37.7-22.2-37.7-45.4Z"/>
    <path class="st2" d="M290.3,272.3v-45.7h18.6v45.5c0,10.3,6.2,17.4,16.3,17.4s16.1-7.1,16.1-17.4v-45.5h18.6v45.7c0,20.7-13.4,34.8-34.7,34.8s-34.9-14.1-34.9-34.8Z"/>
    <path class="st2" d="M373.3,226.7h51.7v17.5h-33.2v13.7h31.5v16.3h-31.5v14h35.5l-4.6,17.5h-49.5v-79.1Z"/>
  </g>
</svg>