<?xml version="1.0" encoding="UTF-8"?>
<svg id="Capa_1" xmlns="http://www.w3.org/2000/svg" version="1.1" viewBox="0 0 509.3 152.5">
  <!-- Generator: Adobe Illustrator 29.4.0, SVG Export Plug-In . SVG Version: 2.1.0 Build 152)  -->
  <defs>
    <style>
      .st0 {
        fill: #a59064;
      }

      .st1 {
        fill: #ceccd9;
      }

      .st2 {
        fill: #fff;
      }
    </style>
  </defs>
  <g>
    <path class="st0" d="M65.3.7c5.8-.3,11.6-1.3,17.4-.3,3.1,9.3,7.1,20.9,4,30.6-2.7,8.6-8,6.3-7.3,18.6.9,14.9,13.2,32.9,6.4,47.7-1.2,2.5-3.1,4-4.3,6-7.6,12.8,6.7,34.8,6.4,48.6-5.1.3-10.2,1.1-15.4.6-4.1-11.6-9.8-22.1-6.2-34.8,3.6-12.6,10.8-13.1,6.3-28.9-3.3-11.6-8.6-17.4-7.3-30.8.7-7.1,5.4-10.5,7.6-16.3,5.4-14.3-7.3-26.9-7.6-40.8Z"/>
    <path class="st0" d="M53.1,4c1.9,14.8,14,34.8,5.4,49-1.1,1.8-3.6,3.8-4.4,5.3-6.1,10.9,11.8,38.8,6.4,54.8-1.9,5.7-6.7,7.7-7.4,14.6-.7,6.9,1.8,13.7,3.6,20.3.1.6.7,1.7,0,2-3.4-1.3-15.1-4.5-17.1-6.8-3.5-4,5.7-17.5,7.2-21.8,5.3-15.3-12.2-30-6.9-48.9,1.5-5.3,5.5-9,7.1-13.6,5.1-15.2-10.6-30.4-8-46.7.7-4.5,10.3-6.8,14.1-8.1Z"/>
    <path class="st0" d="M97.6,3.3c.7-.5,14.6,5.1,15.5,6.1,3.1,3.3-6.6,12-7.1,14.9-2.7,17.1,13.1,37.6,6.7,53.9-1.2,3.1-3.2,4.5-4.7,6.9-8.1,13.2,7.1,35.3,6.3,49.6,0,1.8-1.5,7.9-2.6,9s-10.1,4.9-10.6,4.8c-1.2,0-.2-4.1-.3-5.5-1.4-15.3-13.5-26.9-8.2-43.7,1.5-4.6,5.2-9.3,6.8-13.9,5.4-16.1-13.9-31.4-6.2-51.3,1.4-3.6,4.3-6.3,5.8-9.7,3.1-7.3,1.5-14.1-1.4-21.1Z"/>
    <path class="st0" d="M26.6,18.8c.6,15.6,14.5,37.1,5.7,51.9-2.1,3.6-5.2,4.7-5.7,9.8-1.7,17.4,16.9,39.5,4.2,56.5-1,0-8.9-7.2-9.6-8.4-1.7-3.1-5.9-15.7-7-19.5-1.8-6.5-2.6-12.5-.7-19.1,2-6.7,7.4-10.2,8-17.9.8-10.9-4.8-17.8-7.4-27.5-.6-2.1-1.9-7.4-1.6-9.3.5-3.6,11.1-13.8,14.2-16.5Z"/>
    <path class="st0" d="M120.2,14.3c1-.8,13.9,12,15,13.7,3.9,6.7,6.6,24.7,4,32.1-1.3,3.8-4.9,6.1-6.2,9.9-4.2,11.6,5.1,28,7.1,39.7.6,3.4,1,5.8-.5,8.9-2.7,5.5-8.5,10.1-12.6,14.5-1.1-1.9.4-4.4.3-6.1-.3-13.4-11.1-25.5-9.6-40,.9-8.7,8.4-15.7,9-23.9.7-9.4-4.9-17.1-7.3-25.7-2.3-8.3-2.5-15,.8-23.1Z"/>
    <path class="st0" d="M149.9,58.8c.9-.2.9,1.1,1.1,1.8,2.7,11.3,1.4,23.1-.5,34.4-1.5.3-1,0-1.4-.8-2-3.7-4.3-13.3-4.4-17.6-.1-6.8,2.6-11.8,5.2-17.8Z"/>
    <path class="st0" d="M2.1,59.5c1-1.2,1.1.5,1.3.9,5.7,11.2,6,24.6-1,35.2C.2,88.2-.3,79.8.2,72.1c.1-1.5,1.5-12.1,1.9-12.6Z"/>
  </g>
  <g>
    <path class="st2" d="M176.2,63.8V28.2h14.5v35.5c0,8,4.8,13.6,12.7,13.6s12.6-5.6,12.6-13.6V28.2h14.5v35.6c0,16.1-10.5,27.1-27,27.1s-27.2-11-27.2-27.1Z"/>
    <path class="st2" d="M290.1,90.2l-35-33.4v33h-14.1V28h4.6l35,33.7V28.2h14.1v62h-4.6Z"/>
    <path class="st2" d="M305.5,28.2h14.5v61.6h-14.5V28.2Z"/>
    <path class="st2" d="M328.7,59c0-18.5,13.9-32.1,32.8-32.1s32.4,13.7,32.4,30.6-2.4,13.4-7,19.6l-2.1,2.8h-17.1l4.2-4.9c4.9-5.8,7.2-10.6,7.2-16.5,0-10.8-7.9-17.9-17.6-17.9s-17.9,7.5-17.9,18.5,5.1,14.8,18.9,22.2l18.1,9.6v15.8l-22.5-12.3c-16.5-9-29.4-17.3-29.4-35.4Z"/>
    <path class="st2" d="M402.5,63.8V28.2h14.5v35.5c0,8,4.8,13.6,12.7,13.6s12.6-5.6,12.6-13.6V28.2h14.5v35.6c0,16.1-10.5,27.1-27,27.1s-27.2-11-27.2-27.1Z"/>
    <path class="st2" d="M467.2,28.2h40.3v13.7h-25.8v10.6h24.6v12.7h-24.6v10.9h27.7l-3.5,13.7h-38.6V28.2Z"/>
  </g>
  <g>
    <path class="st1" d="M183.1,132.4v-23.4h7.1c6.5,0,8.4,3.8,8.4,7.1s-2,6.9-8.4,6.9h-4.7v9.4h-2.3ZM190.6,120.9c3.3,0,5.6-2,5.6-4.9s-1.5-4.9-6.1-4.9h-4.7v9.8h5.2Z"/>
    <path class="st1" d="M204.9,113v-4h2.2v4h-2.2ZM204.9,132.4v-17.3h2.2v17.3h-2.2Z"/>
    <path class="st1" d="M221.3,119.4c-.1-1.7-1.2-2.7-2.6-2.7s-2.6,1.1-2.6,2.6.9,2.2,3,2.8c4.2,1.4,5,3.1,5,5.5s-2.1,5.2-5.4,5.2-5.3-2.1-5.3-5.4h0c0-.1,2.2-.1,2.2-.1,0,2.3,1.2,3.5,3.1,3.5s3.2-1.1,3.2-3.1-1.1-2.6-3.1-3.3c-3-1.1-5-2-5-4.9s2.1-4.8,4.9-4.8,4.7,2,4.7,4.7h-2.2Z"/>
    <path class="st1" d="M247.4,127.3c-1.8,3.5-4.6,5.5-8.6,5.5s-9.3-3.8-9.3-9.2,4.2-8.9,9.3-8.9,7.2,2.1,8.6,5.7h-2.4c-1.3-2.4-3.6-3.7-6.1-3.7-4,0-7.2,3.1-7.2,7.1s3.1,7.1,7.2,7.1,4.9-1.2,6.1-3.5h2.4Z"/>
    <path class="st1" d="M254.2,113v-4h2.2v4h-2.2ZM254.2,132.4v-17.3h2.2v17.3h-2.2Z"/>
    <path class="st1" d="M276.9,132.4v-9.7c0-3.9-2.3-6.1-5.4-6.1s-5.4,2.6-5.4,6v9.8h-2.2v-17.3h2.2v2.2h0c1.1-1.7,3.1-2.7,5.3-2.7,4.8,0,7.6,3.3,7.6,8.1v9.7h-2.2Z"/>
    <path class="st1" d="M302,132.4v-3h0c-1.4,2.2-3.9,3.5-6.7,3.5-5.2,0-9.3-3.9-9.3-9.1s4.2-9.1,9.3-9.1,5.4,1.3,6.7,3.5h0v-3h2.2v17.3h-2.2ZM302.1,123.8c0-3.9-3-7.1-7-7.1s-7.1,3-7.1,7.2,3,7,7.1,7,6.9-3.2,6.9-7.1Z"/>
    <path class="st1" d="M318.3,119.4c-.1-1.7-1.2-2.7-2.6-2.7s-2.6,1.1-2.6,2.6.9,2.2,3,2.8c4.2,1.4,5,3.1,5,5.5s-2.1,5.2-5.4,5.2-5.3-2.1-5.3-5.4h0c0-.1,2.2-.1,2.2-.1,0,2.3,1.2,3.5,3.1,3.5s3.2-1.1,3.2-3.1-1.1-2.6-3.1-3.3c-3-1.1-5-2-5-4.9s2.1-4.8,4.9-4.8,4.7,2,4.7,4.7h-2.2Z"/>
    <path class="st1" d="M354.7,132.4v-3h0c-1.5,2.2-4.1,3.5-6.7,3.5-5.2,0-9.3-3.9-9.3-9.1s4.2-9.1,9.3-9.1,5.3,1.3,6.7,3.4h0v-9.1h2.2v23.4h-2.2ZM354.9,123.8c0-3.9-3-7.1-7-7.1s-7.1,3.1-7.1,7.2,3,7,7.1,7,6.9-3.1,6.9-7.1Z"/>
    <path class="st1" d="M365.9,124.6c.2,3.5,3.4,6.3,6.7,6.3s5.3-1.6,6.2-4.1h2.3c-1.3,3.7-4.8,6.1-8.5,6.1s-9-4-9-9.1,4.1-9.1,9-9.1,9.1,4.5,9.1,9.2,0,.4,0,.7h-15.8ZM379.5,122.6c-.6-3.5-3.4-5.9-6.8-5.9s-6.1,2.3-6.7,5.9h13.5Z"/>
    <path class="st1" d="M416,132.4v-3h0c-1.4,2.2-3.9,3.5-6.7,3.5-5.2,0-9.3-3.9-9.3-9.1s4.2-9.1,9.3-9.1,5.4,1.3,6.7,3.5h0v-3h2.2v17.3h-2.2ZM416.2,123.8c0-3.9-3-7.1-7-7.1s-7.1,3-7.1,7.2,3,7,7.1,7,6.9-3.2,6.9-7.1Z"/>
    <path class="st1" d="M442.8,127.3c-1.8,3.5-4.6,5.5-8.6,5.5s-9.3-3.8-9.3-9.2,4.2-8.9,9.3-8.9,7.2,2.1,8.6,5.7h-2.4c-1.3-2.4-3.6-3.7-6.1-3.7-4,0-7.2,3.1-7.2,7.1s3.1,7.1,7.2,7.1,4.9-1.2,6.1-3.5h2.4Z"/>
    <path class="st1" d="M451,124.6c.2,3.5,3.4,6.3,6.7,6.3s5.3-1.6,6.2-4.1h2.3c-1.3,3.7-4.8,6.1-8.5,6.1s-9-4-9-9.1,4.1-9.1,9-9.1,9.1,4.5,9.1,9.2,0,.4,0,.7h-15.8ZM464.5,122.6c-.6-3.5-3.4-5.9-6.8-5.9s-6.1,2.3-6.7,5.9h13.5Z"/>
    <path class="st1" d="M473.5,132.4v-17.3h2.2v2.5h0c.8-1.8,2.1-2.8,4.9-2.9v2.3h0c-3.2.3-4.9,2.4-4.9,5.2v10.2h-2.2Z"/>
    <path class="st1" d="M485.5,123.9c0-5.1,4.1-9.2,9-9.2s9.1,4.2,9.1,9.1-4.2,9.1-9.1,9.1-9-4.1-9-9ZM501.4,123.7c0-3.8-3-7-6.9-7s-6.8,3.3-6.8,7.2,3.1,7,6.8,7,6.8-3.2,6.8-7.2Z"/>
  </g>
</svg>